<svg width="21" height="20" viewBox="0 0 21 20" fill="none" xmlns="http://www.w3.org/2000/svg">
<path d="M13.9345 7.65611C13.609 7.98154 13.0814 7.98154 12.756 7.65611L11.3334 6.23357V12.5001C11.3334 12.9603 10.9603 13.3334 10.5001 13.3334C10.0398 13.3334 9.66675 12.9603 9.66675 12.5001V6.12354L8.10113 7.68915C7.7757 8.01459 7.24806 8.01459 6.92262 7.68915C6.59719 7.36371 6.59719 6.83608 6.92262 6.51064L9.85581 3.57745C10.1812 3.25201 10.7089 3.25201 11.0343 3.57745L13.9345 6.4776C14.2599 6.80303 14.2599 7.33067 13.9345 7.65611Z" fill="#121212"/>
<path d="M5.50008 10.0001C5.03984 10.0001 4.66675 10.3732 4.66675 10.8334V15.0001C4.66675 15.9206 5.41294 16.6667 6.33341 16.6667H14.6667C15.5872 16.6667 16.3334 15.9206 16.3334 15.0001V10.8334C16.3334 10.3732 15.9603 10.0001 15.5001 10.0001C15.0398 10.0001 14.6667 10.3732 14.6667 10.8334V14.5834C14.6667 14.8135 14.4802 15.0001 14.2501 15.0001H6.75008C6.51996 15.0001 6.33341 14.8135 6.33341 14.5834V10.8334C6.33341 10.3732 5.96032 10.0001 5.50008 10.0001Z" fill="#121212"/>
</svg>
