<svg width="21" height="20" viewBox="0 0 21 20" fill="none" xmlns="http://www.w3.org/2000/svg">
<path fill-rule="evenodd" clip-rule="evenodd" d="M13.8333 3.77608H11.3333C10.107 3.77608 9.35748 3.77968 8.8157 3.85252C8.56468 3.88627 8.42738 3.92745 8.35389 3.95769C8.29391 3.98236 8.27524 3.99978 8.26249 4.01253C8.24974 4.02528 8.23232 4.04395 8.20765 4.10393C8.17741 4.17742 8.13623 4.31472 8.10248 4.56574C8.02964 5.10752 8.02604 5.85701 8.02604 7.08337V9.58337C8.02604 10.8097 8.02964 11.5592 8.10248 12.101C8.13623 12.352 8.17741 12.4893 8.20765 12.5628C8.23232 12.6228 8.24974 12.6415 8.26249 12.6542C8.27524 12.667 8.29391 12.6844 8.35389 12.7091C8.42738 12.7393 8.56468 12.7805 8.8157 12.8142C9.35748 12.8871 10.107 12.8907 11.3333 12.8907H13.8333C15.0597 12.8907 15.8092 12.8871 16.351 12.8142C16.602 12.7805 16.7393 12.7393 16.8128 12.7091C16.8728 12.6844 16.8914 12.667 16.9042 12.6542C16.9169 12.6415 16.9343 12.6228 16.959 12.5628C16.9893 12.4893 17.0304 12.352 17.0642 12.101C17.137 11.5592 17.1406 10.8097 17.1406 9.58337V7.08337C17.1406 5.85701 17.137 5.10752 17.0642 4.56574C17.0304 4.31472 16.9893 4.17742 16.959 4.10393C16.9343 4.04395 16.9169 4.02528 16.9042 4.01253C16.8914 3.99978 16.8728 3.98236 16.8128 3.95769C16.7393 3.92745 16.602 3.88627 16.351 3.85252C15.8092 3.77968 15.0597 3.77608 13.8333 3.77608ZM7.06557 2.81561C6.33333 3.54784 6.33333 4.72635 6.33333 7.08337V9.58337C6.33333 11.9404 6.33333 13.1189 7.06557 13.8511C7.7978 14.5834 8.97631 14.5834 11.3333 14.5834H13.8333C16.1904 14.5834 17.3689 14.5834 18.1011 13.8511C18.8333 13.1189 18.8333 11.9404 18.8333 9.58337V7.08337C18.8333 4.72635 18.8333 3.54784 18.1011 2.81561C17.3689 2.08337 16.1904 2.08337 13.8333 2.08337H11.3333C8.97631 2.08337 7.7978 2.08337 7.06557 2.81561Z" fill="#121212"/>
<path d="M4.66667 4.58337V12.9167C4.66667 14.7577 6.15905 16.25 8 16.25H16.3333C16.3333 17.0834 15.594 17.9167 14.6667 17.9167H8C5.23858 17.9167 3 15.6781 3 12.9167V6.25004C3 5.41671 3.83333 4.58337 4.66667 4.58337Z" fill="#121212"/>
</svg>
